<svg width="17" height="16" viewBox="0 0 17 16" fill="none" xmlns="http://www.w3.org/2000/svg">
<path fill-rule="evenodd" clip-rule="evenodd" d="M9.84293 11.0317C8.93613 11.6424 7.83697 12 6.65234 12C3.54358 12 1.02344 9.53757 1.02344 6.5C1.02344 3.46243 3.54358 1 6.65234 1C9.7611 1 12.2812 3.46243 12.2812 6.5C12.2812 7.6575 11.9153 8.73148 11.2903 9.61752L15.0518 13.2929L13.6044 14.7071L9.84293 11.0317ZM6.65234 10C8.63064 10 10.2344 8.433 10.2344 6.5C10.2344 4.567 8.63064 3 6.65234 3C4.67404 3 3.07031 4.567 3.07031 6.5C3.07031 8.433 4.67404 10 6.65234 10Z" fill="black" fill-opacity="0.6"/>
</svg>
